HIERARCHY
ROOT Hips
{
	OFFSET 55.021198 -16.914314 85.513496
	CHANNELS 6 Xposition Yposition Zposition Xrotation Yrotation Zrotation
	JOINT spine
	{
		OFFSET 0.000000 -0.367607 6.392601
		CHANNELS 3 Xrotation Yrotation Zrotation
		JOINT spine1
		{
			OFFSET 0.000000 -0.000002 9.176109
			CHANNELS 3 Xrotation Yrotation Zrotation
			JOINT spine2
			{
				OFFSET 0.000000 0.000000 8.792381
				CHANNELS 3 Xrotation Yrotation Zrotation
				JOINT Neck
				{
					OFFSET 0.000000 -1.076244 22.573700
					CHANNELS 3 Xrotation Yrotation Zrotation
					JOINT Head
					{
						OFFSET 0.000000 -0.000002 6.820114
						CHANNELS 3 Xrotation Yrotation Zrotation
						End Site
						{
							OFFSET 0.000000 5.444267 16.508499
						}
					}
				}
				JOINT RightShoulder
				{
					OFFSET -3.702209 0.515507 9.495087
					CHANNELS 3 Xrotation Yrotation Zrotation
					JOINT RightArm
					{
						OFFSET 0.000000 -0.000002 12.453705
						CHANNELS 3 Xrotation Yrotation Zrotation
						JOINT RightArmRoll
						{
							OFFSET 0.000000 -0.000002 6.286865
							CHANNELS 3 Xrotation Yrotation Zrotation
							JOINT RightForeArm
							{
								OFFSET 0.000000 -0.000002 18.311401
								CHANNELS 3 Xrotation Yrotation Zrotation
								JOINT RightForeArmRoll
								{
									OFFSET 0.000000 -0.000002 7.054825
									CHANNELS 3 Xrotation Yrotation Zrotation
									JOINT RightHand
									{
										OFFSET 0.000000 -0.000002 14.157501
										CHANNELS 3 Xrotation Yrotation Zrotation
										End Site
										{
											OFFSET 0.000000 0.000000 0.100006
										}
									}
								}
							}
						}
					}
				}
				JOINT LeftShoulder
				{
					OFFSET 3.702209 0.515507 9.495087
					CHANNELS 3 Xrotation Yrotation Zrotation
					JOINT LeftArm
					{
						OFFSET 0.000000 -0.000002 12.453705
						CHANNELS 3 Xrotation Yrotation Zrotation
						JOINT LeftArmRoll
						{
							OFFSET 0.000000 -0.000002 6.286865
							CHANNELS 3 Xrotation Yrotation Zrotation
							JOINT LeftForeArm
							{
								OFFSET 0.000000 -0.000002 18.311401
								CHANNELS 3 Xrotation Yrotation Zrotation
								JOINT LeftForeArmRoll
								{
									OFFSET 0.000000 -0.000002 7.054825
									CHANNELS 3 Xrotation Yrotation Zrotation
									JOINT LeftHand
									{
										OFFSET 0.000000 -0.000002 14.157501
										CHANNELS 3 Xrotation Yrotation Zrotation
										End Site
										{
											OFFSET 0.000000 0.000000 0.100006
										}
									}
								}
							}
						}
					}
				}
			}
		}
	}
	JOINT RightUpLeg
	{
		OFFSET -5.666149 0.871611 -1.039032
		CHANNELS 3 Xrotation Yrotation Zrotation
		JOINT RightUpLegRoll
		{
			OFFSET 0.000000 -0.000004 16.600502
			CHANNELS 3 Xrotation Yrotation Zrotation
			JOINT RightLeg
			{
				OFFSET 0.000000 0.000004 -20.557198
				CHANNELS 3 Xrotation Yrotation Zrotation
				JOINT RightLegRoll
				{
					OFFSET 0.000000 -0.000004 20.624397
					CHANNELS 3 Xrotation Yrotation Zrotation
					JOINT RightFoot
					{
						OFFSET 0.000000 -0.000002 17.166397
						CHANNELS 3 Xrotation Yrotation Zrotation
						JOINT RightToeBase
						{
							OFFSET 0.000000 -0.000002 14.350204
							CHANNELS 3 Xrotation Yrotation Zrotation
							End Site
							{
								OFFSET 0.006081 0.801059 6.949707
							}
						}
					}
				}
			}
		}
	}
	JOINT LeftUpLeg
	{
		OFFSET 5.666149 0.871611 -1.039032
		CHANNELS 3 Xrotation Yrotation Zrotation
		JOINT LeftUpLegRoll
		{
			OFFSET 0.000000 -0.000004 16.600601
			CHANNELS 3 Xrotation Yrotation Zrotation
			JOINT LeftLeg
			{
				OFFSET 0.000000 -0.000002 20.557098
				CHANNELS 3 Xrotation Yrotation Zrotation
				JOINT LeftLegRoll
				{
					OFFSET 0.000000 -0.000004 20.815102
					CHANNELS 3 Xrotation Yrotation Zrotation
					JOINT LeftFoot
					{
						OFFSET 0.000000 -0.000004 16.975708
						CHANNELS 3 Xrotation Yrotation Zrotation
						JOINT LeftToeBase
						{
							OFFSET 0.000000 -0.000002 14.350204
							CHANNELS 3 Xrotation Yrotation Zrotation
							End Site
							{
								OFFSET -0.027260 0.801060 6.949707
							}
						}
					}
				}
			}
		}
	}
}
MOTION
Frames: 13
Frame Time: 0.041667
56.445206 -14.228616 84.879402 -0.381654 -2.979324 -12.413237 -0.272977 -0.586414 0.766856 3.464992 -1.168660 1.536277 5.109963 -1.150173 1.550465 7.734241 47.380903 -2.974855 18.796568 -29.064343 -2.661206 2.900411 22.067411 32.181727 -103.287118 -170.465443 -65.190857 -0.000001 -0.000021 0.000002 7.585316 13.160142 -0.219690 -0.000005 0.000005 -3.011699 -5.000220 -7.998712 0.000167 -50.553529 61.040943 59.135846 -65.399970 118.801332 129.280810 -0.000003 0.000009 0.000016 124.144781 -12.849178 42.984180 -0.000006 0.000000 3.001344 -5.000221 7.998776 -0.000158 -3.706529 -171.877804 3.124245 -179.999991 0.000006 -1.053005 159.671532 -3.313462 -1.289686 0.000004 0.000000 0.555919 78.388066 6.616552 2.273625 26.425660 -7.330013 1.445067 -11.099337 175.787991 3.815994 -0.000004 -0.000004 -0.826135 -8.866496 -0.847399 0.667417 0.000000 -0.000003 0.207399 66.828347 -5.750438 -5.069261 25.462383 7.350262 -0.003733 
56.451805 -14.255210 84.882011 -0.343466 -2.988596 -12.326707 -0.278445 -0.584099 0.772240 3.454074 -1.164072 1.546635 5.099033 -1.145460 1.561164 7.756306 47.364995 -3.029712 18.823033 -29.099311 -2.688804 2.629511 22.357057 31.886195 -103.221063 -170.730865 -65.544619 0.000001 -0.000022 0.000001 6.801098 13.198180 -0.149537 -0.000003 0.000005 -3.011700 -5.000224 -7.998712 0.000167 -50.540770 61.068366 59.116339 -65.474965 118.862872 129.355655 -0.000003 0.000009 0.000012 124.164752 -12.846879 42.991939 -0.000004 -0.000003 3.001331 -5.000223 7.998774 -0.000156 -3.713778 -171.890836 3.114473 -179.999991 0.000006 -1.051993 159.693293 -3.316735 -1.288467 0.000006 0.000001 0.554419 78.385703 6.616464 2.273754 26.429193 -7.329975 1.450516 -11.153859 175.803496 3.838863 -0.000003 -0.000004 -0.825303 -8.863912 -0.858221 0.666620 0.000000 -0.000003 0.206348 66.837451 -5.751389 -5.066984 25.462382 7.350263 -0.003742 
56.456013 -14.251214 84.883598 -0.302118 -2.993238 -12.233275 -0.284653 -0.581551 0.777656 3.441675 -1.159026 1.556980 5.086631 -1.140294 1.571943 7.788687 47.335666 -3.093167 18.838162 -29.135640 -2.721474 2.362935 22.622787 31.561734 -103.119355 -170.975618 -65.828332 0.000000 -0.000021 0.000001 6.156207 13.207511 -0.092614 -0.000005 0.000006 -3.011701 -5.000224 -7.998715 0.000166 -50.512930 61.096336 59.079736 -65.549749 118.924563 129.431101 -0.000002 0.000007 0.000013 124.183959 -12.844275 43.000494 -0.000008 -0.000003 3.001322 -5.000219 7.998777 -0.000160 -3.718758 -171.911845 3.099719 -179.999991 0.000006 -1.051994 159.719589 -3.319181 -1.287644 0.000004 -0.000000 0.552856 78.381953 6.616358 2.273761 26.433334 -7.329932 1.456792 -11.213083 175.813181 3.859949 -0.000005 -0.000004 -0.824331 -8.862386 -0.869377 0.666076 0.000001 -0.000003 0.205298 66.845648 -5.751137 -5.067602 25.462382 7.350262 -0.003753 
56.388309 -14.199513 84.876411 -0.258299 -2.993530 -12.134287 -0.291555 -0.578737 0.783056 3.427886 -1.153463 1.567226 5.072837 -1.134611 1.582682 7.832163 47.293271 -3.164984 18.842373 -29.172377 -2.758494 2.101763 22.864087 31.213258 -102.985913 -171.200235 -66.045853 0.000002 -0.000021 0.000003 5.642465 13.191546 -0.048818 -0.000005 0.000006 -3.011699 -5.000221 -7.998714 0.000167 -50.469818 61.125350 59.025791 -65.621951 118.986075 129.502873 -0.000002 0.000008 0.000011 124.202195 -12.842015 43.006027 -0.000005 0.000002 3.001312 -5.000224 7.998773 -0.000159 -3.721412 -171.941802 3.080573 -179.999991 0.000005 -1.050996 159.749724 -3.319825 -1.286893 0.000002 -0.000000 0.551243 78.376735 6.616300 2.273861 26.437777 -7.329892 1.463776 -11.276005 175.817033 3.879157 -0.000005 -0.000004 -0.823236 -8.861804 -0.880601 0.665761 0.000000 -0.000004 0.204246 66.852963 -5.749762 -5.071036 25.462387 7.350263 -0.003752 
56.401608 -14.216412 84.881004 -0.212667 -2.989739 -12.030792 -0.299108 -0.575627 0.788386 3.412775 -1.147322 1.577295 5.057734 -1.128342 1.593275 7.887407 47.237926 -3.244832 18.835828 -29.208730 -2.799419 1.847264 23.080555 30.845619 -102.824769 -171.405127 -66.200639 0.000002 -0.000022 0.000001 5.251618 13.153817 -0.017607 -0.000005 0.000005 -3.011700 -5.000223 -7.998714 0.000166 -50.410686 61.155615 58.953296 -65.690772 119.046714 129.568757 -0.000003 0.000005 0.000013 124.219940 -12.839578 43.010456 -0.000006 0.000000 3.001301 -5.000224 7.998776 -0.000158 -3.721699 -171.979724 3.057518 -179.999991 0.000005 -1.049999 159.783328 -3.318654 -1.284253 0.000005 0.000000 0.549597 78.370328 6.616207 2.273823 26.442715 -7.329847 1.471415 -11.341601 175.816022 3.896185 -0.000004 -0.000004 -0.822043 -8.862032 -0.891626 0.665651 0.000001 -0.000003 0.203202 66.859643 -5.747416 -5.076705 25.462383 7.350263 -0.003762 
56.379406 -14.188414 84.878098 -0.165907 -2.982157 -11.923930 -0.307275 -0.572187 0.793598 3.396444 -1.140534 1.587084 5.041389 -1.121427 1.603631 7.955098 47.169686 -3.332365 18.818787 -29.243595 -2.843870 1.600778 23.271679 30.463709 -102.639589 -171.591113 -66.296446 0.000005 -0.000022 0.000002 4.975313 13.098106 0.001980 -0.000005 0.000006 -3.011699 -5.000222 -7.998714 0.000167 -50.335318 61.187314 58.862113 -65.758459 119.104579 129.629737 -0.000003 0.000005 0.000014 124.237316 -12.836388 43.013601 -0.000005 0.000001 3.001291 -5.000225 7.998776 -0.000156 -3.719572 -172.023628 3.030940 -179.999991 0.000005 -1.050000 159.819938 -3.316625 -1.282099 0.000006 0.000001 0.547933 78.362774 6.616091 2.273953 26.448070 -7.329804 1.479643 -11.409089 175.809179 3.911127 -0.000004 -0.000005 -0.820766 -8.862936 -0.902181 0.665724 0.000001 -0.000003 0.202173 66.865496 -5.744230 -5.084648 25.462380 7.350261 -0.003762 
56.371105 -14.190411 84.879303 -0.118685 -2.971074 -11.814849 -0.316010 -0.568384 0.798643 3.378962 -1.133027 1.596511 5.023913 -1.113816 1.613638 8.035924 47.088858 -3.427268 18.791512 -29.276072 -2.891152 1.363801 23.436570 30.072292 -102.434082 -171.758999 -66.336771 0.000003 -0.000021 0.000001 4.805122 13.028035 0.011174 -0.000005 0.000006 -3.011701 -5.000222 -7.998713 0.000169 -50.243210 61.220625 58.751395 -65.821153 119.159958 129.680089 -0.000004 0.000006 0.000015 124.254665 -12.831970 43.014366 -0.000006 -0.000002 3.001280 -5.000221 7.998774 -0.000158 -3.714997 -172.073489 3.001374 -179.999991 0.000006 -1.049002 159.859198 -3.312761 -1.280118 0.000007 0.000001 0.546270 78.354079 6.616018 2.274056 26.453724 -7.329750 1.488355 -11.477436 175.798414 3.923493 -0.000004 -0.000005 -0.819436 -8.864391 -0.912003 0.665956 0.000000 -0.000002 0.201157 66.870667 -5.740332 -5.094173 25.462382 7.350265 -0.003772 
56.368809 -14.181711 84.878197 -0.071683 -2.956788 -11.704699 -0.325274 -0.564190 0.803468 3.360418 -1.124753 1.605509 5.005364 -1.105430 1.623190 8.130536 46.995492 -3.529128 18.754221 -29.305405 -2.940998 1.137935 23.574254 29.676045 -102.211677 -171.909660 -66.324962 0.000000 -0.000021 0.000001 4.732597 12.947308 0.011394 -0.000005 0.000006 -3.011699 -5.000222 -7.998714 0.000167 -50.133851 61.256005 58.620454 -65.881136 119.211035 129.720988 -0.000004 0.000010 0.000016 124.271891 -12.826851 43.010873 -0.000003 -0.000006 3.001266 -5.000224 7.998772 -0.000159 -3.707931 -172.128294 2.969293 -179.999991 0.000005 -1.049003 159.900370 -3.307985 -1.277672 0.000005 0.000000 0.544627 78.344462 6.615950 2.274010 26.459687 -7.329702 1.497483 -11.545661 175.782773 3.933375 -0.000005 -0.000004 -0.818064 -8.866263 -0.920822 0.666324 0.000000 -0.000003 0.200167 66.875099 -5.735941 -5.105043 25.462382 7.350263 -0.003783 
56.356308 -14.175715 84.879807 -0.025577 -2.939610 -11.594712 -0.335029 -0.559571 0.808027 3.340884 -1.115641 1.613963 4.985826 -1.096218 1.632186 8.239523 46.889798 -3.637519 18.707057 -29.330629 -2.992803 0.924841 23.683850 29.279679 -101.975865 -172.044037 -66.264638 0.000001 -0.000021 0.000001 4.749220 12.859604 0.004186 -0.000005 0.000006 -3.011699 -5.000223 -7.998713 0.000168 -50.006728 61.293496 58.468721 -65.937601 119.257002 129.749839 -0.000003 0.000009 0.000013 124.289526 -12.820005 43.005924 -0.000003 -0.000001 3.001259 -5.000222 7.998774 -0.000158 -3.698323 -172.187102 2.935157 -179.999991 0.000005 -1.049003 159.943264 -3.302315 -1.274808 0.000005 0.000001 0.543018 78.333937 6.615880 2.274115 26.465742 -7.329664 1.506928 -11.612766 175.762214 3.940664 -0.000004 -0.000005 -0.816678 -8.868434 -0.928372 0.666801 0.000001 -0.000004 0.199200 66.878924 -5.731117 -5.116854 25.462383 7.350263 -0.003782 
56.329811 -14.210114 84.883301 0.018955 -2.919870 -11.485835 -0.345226 -0.554495 0.812267 3.320458 -1.105621 1.621803 4.965394 -1.086101 1.640524 8.363565 46.771995 -3.752039 18.650535 -29.350757 -3.046067 0.726285 23.764195 28.887821 -101.730012 -172.162991 -66.159084 -0.000001 -0.000022 0.000001 4.846528 12.768613 -0.008938 -0.000005 0.000005 -3.011701 -5.000220 -7.998715 0.000168 -49.861586 61.333371 58.295719 -65.989777 119.297081 129.764496 -0.000004 0.000005 0.000015 124.307394 -12.811926 42.994572 -0.000003 -0.000003 3.001238 -5.000223 7.998775 -0.000160 -3.686122 -172.249871 2.899489 -179.999991 0.000005 -1.049002 159.987223 -3.294774 -1.271198 0.000006 -0.000000 0.541459 78.322701 6.615790 2.274165 26.472007 -7.329618 1.516617 -11.677913 175.738718 3.944854 -0.000004 -0.000005 -0.815292 -8.870768 -0.934379 0.667372 0.000000 -0.000002 0.198268 66.882059 -5.725999 -5.129441 25.462385 7.350264 -0.003791 
56.326908 -14.196613 84.882507 0.061223 -2.897889 -11.379304 -0.355829 -0.548929 0.816138 3.299213 -1.094633 1.628937 4.944143 -1.075037 1.648102 8.503188 46.642177 -3.872176 18.584718 -29.364906 -3.100195 0.544065 23.814141 28.505219 -101.477391 -172.267370 -66.011859 0.000001 -0.000021 0.000002 5.016025 12.678268 -0.026452 -0.000004 0.000006 -3.011700 -5.000222 -7.998713 0.000169 -49.697604 61.375656 58.100389 -66.038497 119.330044 129.764196 -0.000002 0.000004 0.000015 124.326027 -12.801658 42.980656 -0.000005 0.000001 3.001230 -5.000222 7.998778 -0.000156 -3.671309 -172.314608 2.862701 -179.999991 0.000005 -1.049003 160.031947 -3.287243 -1.267551 0.000005 0.000000 0.539971 78.310783 6.615699 2.274153 26.478468 -7.329567 1.526489 -11.740101 175.712272 3.945834 -0.000005 -0.000004 -0.813932 -8.873128 -0.938584 0.668005 0.000001 -0.000003 0.197373 66.884648 -5.720760 -5.142332 25.462382 7.350261 -0.003791 
56.312111 -14.217516 84.886009 0.100545 -2.874005 -11.276359 -0.366793 -0.542843 0.819590 3.277226 -1.082607 1.635297 4.922149 -1.062937 1.654815 8.658981 46.500549 -3.997434 18.509929 -29.372221 -3.154648 0.380015 23.832132 28.136452 -101.220979 -172.358143 -65.826303 0.000001 -0.000022 0.000001 5.249223 12.592181 -0.046921 -0.000003 0.000006 -3.011699 -5.000224 -7.998713 0.000168 -49.514316 61.420831 57.882110 -66.081226 119.355397 129.744839 -0.000002 0.000007 0.000014 124.345534 -12.789145 42.961139 -0.000006 0.000003 3.001221 -5.000222 7.998774 -0.000156 -3.653823 -172.381339 2.825303 -179.999991 0.000005 -1.049003 160.076808 -3.278772 -1.264579 0.000005 0.000000 0.538563 78.298208 6.615667 2.274282 26.484931 -7.329531 1.536426 -11.798447 175.681836 3.943702 -0.000004 -0.000004 -0.812613 -8.875405 -0.940713 0.668681 0.000001 -0.000003 0.196519 66.886711 -5.715519 -5.155251 25.462484 7.350267 -0.003820 
56.298912 -14.214214 84.887299 0.136247 -2.848552 -11.177929 -0.378077 -0.536202 0.822576 3.254587 -1.069492 1.640771 4.899505 -1.049752 1.660561 8.831499 46.347307 -4.127285 18.426471 -29.371767 -3.208885 0.235984 23.817015 27.786208 -100.964116 -172.435830 -65.605606 -0.000000 -0.000021 0.000003 5.537713 12.514279 -0.069115 -0.000003 0.000006 -3.011699 -5.000224 -7.998714 0.000167 -49.311165 61.468738 57.640219 -66.118656 119.371763 129.705538 -0.000003 0.000009 0.000015 124.366024 -12.774391 42.936044 -0.000007 0.000000 3.001210 -5.000225 7.998775 -0.000160 -3.633626 -172.449040 2.787761 -179.999991 0.000006 -1.049002 160.121409 -3.268410 -1.260963 0.000005 -0.000000 0.537265 78.285265 6.615592 2.274231 26.491391 -7.329484 1.546366 -11.851836 175.648410 3.938108 -0.000003 -0.000004 -0.811362 -8.877455 -0.940501 0.669379 0.000001 -0.000002 0.195712 66.888111 -5.710474 -5.167646 25.462481 7.350266 -0.003830 
